<?xml version="1.0" encoding="UTF-8"?>
<svg id="_Слой_1" data-name="Слой 1" xmlns="http://www.w3.org/2000/svg" width="100" height="100" viewBox="0 0 100 100">
  <path d="m50,100C22.39,100-.03,77.56,0,49.96.03,22.34,22.48-.06,50.07,0c27.58.06,49.91,22.4,49.93,49.97.03,27.6-22.4,50.03-50,50.03Zm-.02-6.26c24.12.02,43.73-19.55,43.77-43.69.04-24.12-19.51-43.73-43.66-43.8-24.16-.07-43.84,19.58-43.83,43.76,0,24.13,19.59,43.72,43.72,43.73Z" stroke-width="0"/>
  <path d="m67,46h-13v-13c0-2.21-1.79-4-4-4s-4,1.79-4,4v13h-13c-2.21,0-4,1.79-4,4s1.79,4,4,4h13v13c0,2.21,1.79,4,4,4s4-1.79,4-4v-13h13c2.21,0,4-1.79,4-4s-1.79-4-4-4Z" stroke-width="0"/>
</svg>